<svg width="134" height="97" viewBox="0 0 134 97" fill="none" xmlns="http://www.w3.org/2000/svg">
<path d="M1 16.2592C1.28949 17.6178 3.67111 19.4901 4.53377 19.8233C8.12139 21.2143 11.8267 20.8075 15.5467 20.1536C25.7528 18.3608 34.2632 10.7796 37.7235 1.02932C36.8736 0.488225 39.9308 7.60762 40.2711 8.24782C43.1892 13.7352 47.5571 18.847 53.4541 21.2065C65.9442 26.2037 79.6066 17.3188 83.163 4.93758C83.1737 4.90229 83.612 6.26968 83.7854 6.63726C84.401 7.937 85.2137 9.12121 86.0272 10.3024C88.0925 13.3029 90.1883 16.417 92.782 18.9912C101.04 27.1859 114.761 30.8557 125.041 24.1647" stroke="#1D1D1D" stroke-width="2" stroke-miterlimit="1.5" stroke-linecap="round" stroke-linejoin="round"/>
<path d="M5.95766 50.5025C5.54589 50.2035 8.87961 52.5363 9.79903 52.8393C12.7095 53.8009 15.6883 54.0841 18.7379 53.8538C29.2578 53.0588 37.0661 47.0304 43.2241 38.9004C42.9231 38.3015 43.7043 40.16 44.0562 40.7305C45.0444 42.3371 46.2059 43.8604 47.4852 45.2445C50.9493 48.9889 55.1368 52.1767 59.9546 53.9479C73.5123 58.9353 82.1304 49.4223 88.0775 38.7122C87.8393 38.3182 88.6548 39.4308 88.9058 39.8169C89.6223 40.9168 90.3732 41.9881 91.1721 43.0311C93.853 46.5306 96.8319 49.8937 100.579 52.2806C110.855 58.8265 123.346 56.2344 129.685 45.6694" stroke="#1D1D1D" stroke-width="2" stroke-miterlimit="1.5" stroke-linecap="round" stroke-linejoin="round"/>
<path d="M6.76294 88.2731C10.1094 89.5777 13.8431 90.0962 17.4179 89.9649C27.0938 89.611 41.6425 84.1835 44.6038 73.6891C45.7235 78.167 47.8111 82.4456 52.2781 86.2645C64.9161 97.0667 80.6047 92.4978 86.295 77.3247C88.9376 82.8021 92.3175 87.7211 97.4332 91.6264C109.761 101.037 124.32 93.8888 132.279 82.5818" stroke="#1D1D1D" stroke-width="2" stroke-miterlimit="1.5" stroke-linecap="round" stroke-linejoin="round"/>
</svg>
