<svg width="45" height="83" viewBox="0 0 45 83" fill="none" xmlns="http://www.w3.org/2000/svg">
<path d="M18.5194 1C18.8193 7.46876 18.4162 14.1394 19.0398 20.5733" stroke="#1D1D1D" stroke-width="2" stroke-miterlimit="1.5" stroke-linecap="round" stroke-linejoin="round"/>
<path d="M1 27.1627C4.30109 26.9264 8.39742 25.6157 11.6833 25.9873" stroke="#1D1D1D" stroke-width="2" stroke-miterlimit="1.5" stroke-linecap="round" stroke-linejoin="round"/>
<path d="M24.5351 24.7319C28.4754 25.2029 32.4294 24.5771 36.3857 25.0292" stroke="#1D1D1D" stroke-width="2" stroke-miterlimit="1.5" stroke-linecap="round" stroke-linejoin="round"/>
<path d="M18.7787 31.3745C18.6445 36.2601 18.6625 41.1462 18.6612 46.0331" stroke="#1D1D1D" stroke-width="2" stroke-miterlimit="1.5" stroke-linecap="round" stroke-linejoin="round"/>
<path d="M33.3351 46.79C32.9841 50.6318 33.29 54.4432 33.3665 58.289" stroke="#1D1D1D" stroke-width="2" stroke-miterlimit="1.5" stroke-linecap="round" stroke-linejoin="round"/>
<path d="M24.8125 63.929C26.0931 63.7678 27.4171 63.5316 28.7111 63.5418" stroke="#1D1D1D" stroke-width="2" stroke-miterlimit="1.5" stroke-linecap="round" stroke-linejoin="round"/>
<path d="M38.5318 63.1402C40.2506 63.1964 41.9246 62.9865 43.6372 62.8955" stroke="#1D1D1D" stroke-width="2" stroke-miterlimit="1.5" stroke-linecap="round" stroke-linejoin="round"/>
<path d="M33.9393 68.5435C33.7486 72.7174 33.7908 76.8998 33.788 81.0775" stroke="#1D1D1D" stroke-width="2" stroke-miterlimit="1.5" stroke-linecap="round" stroke-linejoin="round"/>
</svg>
