<svg width="12" height="13" viewBox="0 0 12 13" fill="none" xmlns="http://www.w3.org/2000/svg">
<path d="M7.63398 7.11845C8.75136 7.54144 10.2554 7.46434 11.213 6.93497L12 6.49997L11.213 6.06496C10.2554 5.53562 8.75142 5.45854 7.63398 5.88147L6.79602 6.19866C6.7908 6.18177 6.7845 6.16548 6.77832 6.14907L7.59276 5.7819C8.682 5.29085 9.6909 4.17288 9.99378 3.12143L10.2427 2.25732L9.37854 2.50619C8.3271 2.80904 7.20912 3.81798 6.71802 4.90719L6.36342 5.69383C6.34704 5.68587 6.33066 5.67797 6.31374 5.67108L6.61848 4.86597C7.04142 3.74858 6.96432 2.24459 6.435 1.28697L6 0.5L5.56499 1.287C5.03564 2.24462 4.95857 3.74858 5.3815 4.866L5.68624 5.67111C5.6693 5.678 5.65292 5.6859 5.63657 5.69385L5.28193 4.90721C4.79087 3.81801 3.67289 2.80906 2.62144 2.50622L1.75733 2.25735L2.0062 3.12146C2.30905 4.17288 3.318 5.29088 4.40721 5.78193L5.22164 6.1491C5.21548 6.16551 5.20915 6.1818 5.20398 6.19869L4.36599 5.8815C3.2486 5.45854 1.7446 5.53565 0.786978 6.06498L0 6.49997L0.787002 6.93497C1.74463 7.46434 3.2486 7.54144 4.36602 7.11845L5.24317 6.78647C5.25008 6.80159 5.25703 6.81677 5.26482 6.83141L4.40724 7.21805C3.31803 7.70908 2.30908 8.82706 2.00623 9.87849L1.75736 10.7426L2.62147 10.4937C3.67289 10.1909 4.7909 9.18196 5.28196 8.09278L5.67994 7.21001C5.69464 7.21613 5.70991 7.22117 5.72503 7.22651L5.38153 8.134C4.95857 9.25138 5.03567 10.7554 5.56501 11.713L6 12.5L6.43506 11.713C6.96438 10.7554 7.04148 9.25144 6.61854 8.134L6.27498 7.22645C6.2901 7.22117 6.3054 7.21613 6.3201 7.20995L6.71808 8.09272C7.20912 9.18196 8.3271 10.1909 9.37854 10.4937L10.2427 10.7426L9.99378 9.87849C9.69096 8.82706 8.682 7.70908 7.59282 7.21799L6.73518 6.83141C6.74298 6.81677 6.74994 6.80159 6.75684 6.78641L7.63398 7.11845Z" fill="#1D1D1D"/>
</svg>
