<svg width="169" height="169" viewBox="0 0 169 169" fill="none" xmlns="http://www.w3.org/2000/svg">
<path d="M65.0362 6.06727C67.8691 0.822919 74.9254 -0.268678 79.2106 3.87451L94.6881 18.8392C97.5459 21.6023 101.672 22.6086 105.481 21.4715L126.11 15.3127C131.822 13.6076 137.583 17.8253 137.684 23.785L138.046 45.311C138.113 49.2855 140.319 52.9146 143.817 54.8039L162.759 65.0361C168.003 67.8691 169.095 74.9253 164.951 79.2105L149.987 94.6881C147.224 97.5458 146.217 101.672 147.354 105.481L153.513 126.11C155.218 131.822 151.001 137.583 145.041 137.684L123.515 138.046C119.54 138.113 115.911 140.319 114.022 143.817L103.79 162.759C100.957 168.003 93.9005 169.094 89.6153 164.951L74.1378 149.987C71.28 147.224 67.1539 146.217 63.345 147.354L42.7157 153.513C37.0042 155.218 31.2427 151.001 31.1423 145.041L30.7797 123.515C30.7127 119.54 28.5067 115.911 25.0093 114.022L6.06731 103.79C0.822955 100.957 -0.268643 93.9005 3.87455 89.6153L18.8393 74.1377C21.6023 71.28 22.6086 67.1539 21.4715 63.3449L15.3128 42.7156C13.6076 37.0041 17.8253 31.2427 23.785 31.1423L45.311 30.7797C49.2855 30.7127 52.9147 28.5067 54.8039 25.0093L65.0362 6.06727Z" fill="#E3F2FF" stroke="#1D1D1D" stroke-width="2"/>
</svg>
