<svg width="40" height="34" viewBox="0 0 40 34" fill="none" xmlns="http://www.w3.org/2000/svg">
<g clip-path="url(#clip0_18_118)">
<path d="M35.9864 34H4.00586C1.98644 34 0.343262 32.3568 0.343262 30.3374V3.6626C0.343262 1.64318 1.98644 0 4.00586 0H35.9864C38.0135 0 39.6567 1.64318 39.6567 3.6626C39.6567 4.24616 39.1807 4.72222 38.5971 4.7299C38.0135 4.7299 37.5375 4.25384 37.5298 3.67028C37.5298 2.81798 36.8387 2.1346 35.9864 2.12692H4.00586C3.15356 2.12692 2.47018 2.81798 2.4625 3.67028V30.3374C2.4625 31.1897 3.15356 31.8808 4.00586 31.8808H35.9864C36.8387 31.8808 37.5298 31.1897 37.5298 30.3374V16.0786C37.5298 15.495 38.0059 15.019 38.5894 15.0113C39.173 15.0113 39.649 15.4874 39.6567 16.0709V30.3297C39.6567 32.3568 38.0135 34 35.9864 34Z" fill="#1D1D1D"/>
<path d="M1.40283 3.66261V9.02982H38.5894V3.66261C38.5894 2.22675 37.4223 1.05963 35.9864 1.05963H4.00581C2.56995 1.05963 1.40283 2.22675 1.40283 3.66261Z" fill="#FDE4F9"/>
<path d="M38.5971 10.0971H1.40288C0.819323 10.0971 0.343262 9.62105 0.343262 9.03749V3.6626C0.343262 1.64318 1.98644 0 4.00586 0H35.9864C38.0135 0 39.6567 1.64318 39.6567 3.6626V9.02981C39.6567 9.62105 39.1807 10.0971 38.5971 10.0971ZM2.47018 7.97019H37.5298V3.67028C37.5298 2.81798 36.8387 2.12692 35.9864 2.12692H4.01354C3.16124 2.12692 2.47786 2.81798 2.47018 3.6626V7.97019Z" fill="#1D1D1D"/>
<path d="M22.9715 6.11204H20.9521C20.3685 6.11204 19.8925 5.63598 19.8925 5.05242C19.8925 4.46886 20.3685 3.9928 20.9521 3.9928H22.9715C23.5551 3.9928 24.0311 4.46886 24.0311 5.05242C24.0388 5.63598 23.5627 6.11204 22.9715 6.11204Z" fill="#1D1D1D"/>
<path d="M28.6075 6.11204H26.5881C26.0045 6.11204 25.5284 5.63598 25.5284 5.05242C25.5284 4.46886 26.0045 3.9928 26.5881 3.9928H28.6075C29.191 3.9928 29.6671 4.46886 29.6671 5.05242C29.6671 5.63598 29.191 6.11204 28.6075 6.11204Z" fill="#1D1D1D"/>
<path d="M34.2358 6.11204H32.2164C31.6328 6.11204 31.1567 5.63598 31.1567 5.05242C31.1567 4.46886 31.6328 3.9928 32.2164 3.9928H34.2358C34.8193 3.9928 35.2954 4.46886 35.2954 5.05242C35.3031 5.63598 34.827 6.11204 34.2358 6.11204Z" fill="#1D1D1D"/>
<path d="M30.9955 20.6165H9.00452V25.5H30.9955V20.6165Z" fill="#FDE4F9"/>
<path d="M30.9955 26.5596H9.00457C8.42101 26.5596 7.94495 26.0836 7.94495 25.5V20.6089C7.94495 20.0253 8.42101 19.5493 9.00457 19.5493H30.9955C31.5791 19.5493 32.0552 20.0253 32.0552 20.6089V25.5C32.0628 26.0836 31.5868 26.5596 30.9955 26.5596ZM10.0642 24.4404H29.9359V21.6762H10.0642V24.4404Z" fill="#1D1D1D"/>
<path d="M27.7936 17.1075H12.2064C11.6229 17.1229 11.1315 16.6622 11.1161 16.0709C11.1007 15.4797 11.5614 14.996 12.1527 14.9806C12.168 14.9806 12.1911 14.9806 12.2064 14.9806H27.8013C28.3848 14.9652 28.8763 15.4259 28.8916 16.0172C28.907 16.6084 28.4463 17.0922 27.855 17.1075C27.832 17.1075 27.8166 17.1075 27.7936 17.1075Z" fill="#1D1D1D"/>
</g>
<defs>
<clipPath id="clip0_18_118">
<rect width="39.3135" height="34" fill="white" transform="translate(0.343262)"/>
</clipPath>
</defs>
</svg>
