<svg width="42" height="34" viewBox="0 0 42 34" fill="none" xmlns="http://www.w3.org/2000/svg">
<g clip-path="url(#clip0_18_128)">
<path d="M35.9306 5.53893H6.06944C5.43583 5.55936 4.90442 5.05861 4.8942 4.42501C4.88398 3.79141 5.3643 3.26 5.9979 3.23956C6.01834 3.23956 6.03878 3.23956 6.06944 3.23956H35.9306C36.5642 3.21912 37.0956 3.71987 37.1058 4.35347C37.116 4.98708 36.6255 5.51849 35.9919 5.52871C35.9715 5.53893 35.951 5.53893 35.9306 5.53893Z" fill="#1D1D1D"/>
<path d="M24.5768 33.6117C23.9432 33.6117 23.4322 33.1007 23.4322 32.4671C23.4322 32.3444 23.4527 32.2218 23.4935 32.0992C23.7797 31.251 25.1491 27.2552 26.1097 25.5996C25.1389 24.5675 22.3285 21.4812 21.0102 18.8446C19.7737 21.2359 16.9735 24.404 15.8903 25.5894C16.9224 27.2756 18.2101 31.1999 18.486 32.089C18.5269 32.2116 18.5473 32.3342 18.5473 32.4671C18.5473 33.1007 18.0364 33.6117 17.4028 33.6117C16.902 33.6117 16.4524 33.2846 16.3093 32.8043V32.7941C15.6348 30.6787 14.4289 27.388 13.826 26.6318C13.3354 26.0084 13.4785 25.15 13.7442 24.6084C13.7953 24.5164 13.8566 24.4244 13.9282 24.3426C16.0334 22.0637 19.1094 18.2723 19.3138 16.9438C19.3751 16.5657 19.651 15.9116 20.8263 15.8503C22.1037 15.7788 22.5227 16.3408 22.6453 16.8109C23.2278 19.0081 26.7331 22.9732 28.031 24.312C28.1127 24.3937 28.1842 24.4959 28.2353 24.5981C28.501 25.1193 28.6441 25.9573 28.1842 26.5909C27.6017 27.3778 26.3243 30.8422 25.6498 32.835C25.517 33.3051 25.0775 33.6219 24.5768 33.6117Z" fill="#1D1D1D"/>
<path d="M21 26.0493C20.3664 26.0493 19.8554 25.5383 19.8554 24.9047V17.0664C19.8861 16.4328 20.4277 15.9525 21.0613 15.9831C21.6438 16.0138 22.1139 16.4839 22.1446 17.0664V24.9047C22.1446 25.5383 21.6336 26.0493 21 26.0493Z" fill="#1D1D1D"/>
<path d="M37.535 24.9967C36.9014 24.9967 36.3904 24.4857 36.3904 23.8521V20.9293C36.3904 12.437 29.4821 5.53891 21 5.53891C12.5179 5.53891 5.60953 12.437 5.60953 20.9293V23.8521C5.58909 24.4857 5.05768 24.9865 4.4343 24.966C3.83135 24.9456 3.34082 24.4653 3.32038 23.8521V20.9293C3.31016 11.1698 11.2098 3.25998 20.9693 3.24976C25.6702 3.24976 30.177 5.10969 33.4983 8.44122C36.8299 11.7421 38.7 16.2386 38.7 20.9293V23.8521C38.6898 24.4857 38.1686 24.9967 37.535 24.9967Z" fill="#1D1D1D"/>
<path d="M22.5533 7.63392H19.4466C18.5167 7.63392 17.7604 6.87769 17.7604 5.94772V2.8308C17.7604 1.90083 18.5167 1.14459 19.4466 1.14459H22.5533C23.4833 1.14459 24.2395 1.90083 24.2395 2.8308V5.94772C24.2395 6.87769 23.4833 7.63392 22.5533 7.63392Z" fill="#E3F2FF"/>
<path d="M22.5533 8.77848H19.4466C17.8831 8.77848 16.6158 7.51127 16.6158 5.9477V2.83078C16.6158 1.26721 17.8831 0 19.4466 0H22.5533C24.1169 0 25.3841 1.26721 25.3841 2.83078V5.9477C25.3841 7.51127 24.1169 8.77848 22.5533 8.77848ZM19.4466 2.28915C19.1503 2.28915 18.905 2.53442 18.905 2.83078V5.9477C18.905 6.24406 19.1503 6.48933 19.4466 6.48933H22.5533C22.8497 6.48933 23.095 6.24406 23.095 5.9477V2.83078C23.095 2.53442 22.8497 2.28915 22.5533 2.28915H19.4466Z" fill="#1D1D1D"/>
<path d="M39.0986 28.1443H35.9817C35.0517 28.1443 34.2955 27.3881 34.2955 26.4581V23.3412C34.2955 22.4112 35.0517 21.655 35.9817 21.655H39.0986C40.0286 21.655 40.7848 22.4112 40.7848 23.3412V26.4581C40.7848 27.3881 40.0286 28.1443 39.0986 28.1443Z" fill="#E3F2FF"/>
<path d="M39.0986 29.2889H35.9817C34.4181 29.2889 33.1509 28.0216 33.1509 26.4581V23.3412C33.1509 21.7776 34.4181 20.5104 35.9817 20.5104H39.0986C40.6621 20.5104 41.9294 21.7776 41.9294 23.3412V26.4581C41.9294 28.0216 40.6621 29.2889 39.0986 29.2889ZM35.9817 22.8097C35.6853 22.8097 35.44 23.055 35.44 23.3514V26.4683C35.44 26.7647 35.6853 27.0099 35.9817 27.0099H39.0986C39.3949 27.0099 39.6402 26.7647 39.6402 26.4683V23.3514C39.6402 23.055 39.3949 22.8097 39.0986 22.8097H35.9817Z" fill="#1D1D1D"/>
<path d="M6.01834 28.1443H2.90141C1.97145 28.1443 1.21521 27.3881 1.21521 26.4581V23.3412C1.21521 22.4112 1.97145 21.655 2.90141 21.655H6.01834C6.9483 21.655 7.70454 22.4112 7.70454 23.3412V26.4683C7.70454 27.3983 6.9483 28.1545 6.01834 28.1443Z" fill="#E3F2FF"/>
<path d="M6.01832 29.2889H2.9014C1.33783 29.2889 0.0706177 28.0216 0.0706177 26.4581V23.3412C0.0706177 21.7776 1.33783 20.5104 2.9014 20.5104H6.01832C7.58189 20.5104 8.8491 21.7776 8.8491 23.3412V26.4581C8.8491 28.0216 7.58189 29.2889 6.01832 29.2889ZM2.9014 22.8097C2.60503 22.8097 2.35977 23.055 2.35977 23.3514V26.4683C2.35977 26.7647 2.60503 27.0099 2.9014 27.0099H6.01832C6.31468 27.0099 6.55995 26.7647 6.55995 26.4683V23.3514C6.55995 23.055 6.31468 22.8097 6.01832 22.8097H2.9014Z" fill="#1D1D1D"/>
<path d="M26.825 34H15.1749C14.5413 34 14.0303 33.4891 14.0303 32.8555C14.0303 32.2218 14.5413 31.7109 15.1749 31.7109H26.825C27.4586 31.7109 27.9696 32.2218 27.9696 32.8555C27.9696 33.4891 27.4586 34 26.825 34Z" fill="#1D1D1D"/>
</g>
<defs>
<clipPath id="clip0_18_128">
<rect width="41.8587" height="34" fill="white" transform="translate(0.0706177)"/>
</clipPath>
</defs>
</svg>
