<svg width="65" height="63" viewBox="0 0 65 63" fill="none" xmlns="http://www.w3.org/2000/svg">
<path fill-rule="evenodd" clip-rule="evenodd" d="M4.99809 32.3619C10.9275 23.4545 21.4139 5.60163 28.6233 4.55087C35.4566 3.55487 59.3211 24.7067 59.4034 25.655C59.8871 31.2357 60.6775 36.7896 61.4155 42.3407C61.7638 44.9595 62.6418 48.0274 61.3042 50.4926C58.9109 54.9029 51.9755 55.036 47.6504 55.7496C37.5261 57.4206 27.2446 59.0058 16.9699 59.2839C12.753 59.3984 10.5558 57.8013 9.13206 55.7573C7.55166 53.4895 6.99969 50.1832 6.57985 47.5391C5.86654 43.0505 5.23714 37.1856 4.99809 32.3619Z" fill="white" stroke="black" stroke-width="2" stroke-miterlimit="1.5" stroke-linecap="round" stroke-linejoin="round"/>
<path fill-rule="evenodd" clip-rule="evenodd" d="M9.87548 32.029C8.95814 26.7506 7.95291 21.1661 7.43386 15.8403C23.6089 12.9192 36.301 11.1441 51.9573 10.0275C52.936 16.0361 53.5395 22.0692 54.3563 28.0971C47.5555 34.1524 40.583 39.9531 33.4617 45.6491C25.3601 41.5117 18.1418 36.9794 9.87548 32.029Z" fill="white" stroke="black" stroke-width="2" stroke-miterlimit="1.5" stroke-linecap="round" stroke-linejoin="round"/>
<path d="M33.5526 21.4288C28.709 21.7802 23.7482 22.3916 18.9396 23.0925" stroke="black" stroke-width="2" stroke-miterlimit="1.5" stroke-linecap="round" stroke-linejoin="round"/>
<path d="M44.138 28.3516C36.1491 29.5135 28.1539 30.6486 20.1492 31.7044" stroke="black" stroke-width="2" stroke-miterlimit="1.5" stroke-linecap="round" stroke-linejoin="round"/>
</svg>
