<svg width="34" height="34" viewBox="0 0 34 34" fill="none" xmlns="http://www.w3.org/2000/svg">
<path d="M17.2789 1.00937V5.33242C15.373 4.29648 12.9824 5.00039 11.9465 6.91289C10.9105 8.82539 11.6144 11.2094 13.5269 12.2453C14.6957 12.8828 16.1101 12.8828 17.2855 12.2453V16.5684H21.2633C20.7054 14.4699 21.9605 12.3184 24.059 11.7605C26.1574 11.2027 28.309 12.4578 28.8668 14.5562C29.0394 15.2137 29.0394 15.9109 28.8668 16.5684H32.8445V4.69492C32.8445 2.65625 31.191 1.00937 29.159 1.00937H17.2789Z" fill="#E3E3FF"/>
<path d="M29.1523 0H4.84763C2.25779 0 0.15271 2.10508 0.15271 4.69492V29.3051C0.15271 31.8949 2.25779 34 4.84763 34H17.3386C17.8965 34 18.348 33.5484 18.348 32.9973V30.082C18.7133 30.1484 19.0918 30.1684 19.4636 30.1484C20.6258 30.0887 21.7347 29.6238 22.5914 28.827C24.5902 26.9676 24.6965 23.8398 22.8371 21.841C21.2965 20.1941 18.8394 19.7957 16.8605 20.8715C16.3758 21.1371 16.1898 21.748 16.4554 22.2395C16.7211 22.7309 17.332 22.9102 17.8234 22.6445C18.3148 22.3789 18.866 22.2594 19.4238 22.2992C21.0375 22.4121 22.2527 23.8133 22.1398 25.4203C22.0402 26.868 20.825 28.0633 19.3707 28.1297C18.8328 28.1562 18.3015 28.0367 17.8301 27.7777C17.684 27.698 17.5179 27.6582 17.3453 27.6582C16.7875 27.6582 16.3359 28.1098 16.3359 28.6676V31.9813H4.84763C3.36677 31.9813 2.17146 30.7793 2.17146 29.3051V17.5711H4.07732C4.04412 17.7437 4.02419 17.9164 4.01091 18.0891C3.81833 20.8117 5.87029 23.1758 8.59294 23.3684C8.71248 23.375 8.83201 23.3816 8.9449 23.3816C10.1933 23.3883 11.4019 22.9102 12.3117 22.0535C13.9586 20.5129 14.357 18.0625 13.2812 16.0836C13.2746 16.0703 13.2679 16.0637 13.2613 16.0504C12.989 15.5656 12.3715 15.393 11.8867 15.6719C11.4019 15.9441 11.2293 16.5617 11.5082 17.0465C11.7738 17.5379 11.8933 18.0957 11.8535 18.6535C11.7406 20.2672 10.3394 21.4758 8.72576 21.3629C7.2781 21.2633 6.08279 20.048 6.01638 18.5938C5.98982 18.0559 6.10935 17.5246 6.36169 17.0465C6.44138 16.9004 6.48787 16.7344 6.48787 16.5617C6.48787 16.0039 6.0363 15.5523 5.47849 15.5523H2.17146V4.69492C2.17146 3.21406 3.37341 2.01875 4.84763 2.01875H16.2695V3.92461C15.6918 3.81836 15.1008 3.81836 14.5297 3.92461C11.8402 4.40273 10.0539 6.97266 10.5386 9.66211C11.0234 12.3516 13.5867 14.1379 16.2761 13.6531V16.5684C16.2761 17.1262 16.7277 17.5777 17.2855 17.5777H21.2633C21.3695 17.5777 21.4758 17.5578 21.5754 17.5312C22.1066 17.3586 22.3922 16.7875 22.2195 16.2563C22.1797 16.0902 22.1531 15.9176 22.1398 15.7449C22.0402 14.1313 23.2621 12.7434 24.8758 12.6437C24.9355 12.6371 24.9953 12.6371 25.0551 12.6371C25.3074 12.6371 25.5597 12.6703 25.8054 12.7367C27.366 13.1484 28.2957 14.7555 27.884 16.316C27.864 16.4023 27.8508 16.4887 27.8508 16.575C27.8508 17.1328 28.3023 17.5844 28.8601 17.5844H32.8379C33.3957 17.5844 33.8472 17.1328 33.8472 16.575V4.69492C33.8406 2.10508 31.7422 0 29.1523 0ZM31.8285 15.5523H30.0023C30.0023 12.823 27.791 10.6117 25.0617 10.6117C24.9621 10.6117 24.8625 10.6117 24.7562 10.6184C22.3656 10.7645 20.3801 12.6703 20.141 15.0543C20.1277 15.2203 20.1144 15.3863 20.1144 15.5523H18.2883V12.2387C18.2883 12.0727 18.2484 11.9066 18.1687 11.7539C17.9031 11.2625 17.2922 11.0832 16.8008 11.3488C16.3094 11.6145 15.7582 11.734 15.2004 11.6941C13.5867 11.5813 12.3715 10.1801 12.4844 8.57305C12.584 7.12539 13.7992 5.93008 15.2535 5.86367C15.7914 5.83711 16.3226 5.95664 16.7941 6.21562C16.9402 6.29531 17.1062 6.33516 17.2789 6.33516C17.8367 6.33516 18.2883 5.88359 18.2883 5.32578V2.01875H29.1523C30.6332 2.01875 31.8285 3.2207 31.8285 4.69492V15.5523Z" fill="#1D1D1D"/>
</svg>
