<svg width="36" height="34" viewBox="0 0 36 34" fill="none" xmlns="http://www.w3.org/2000/svg">
<g clip-path="url(#clip0_18_185)">
<path d="M20.7431 28.5536C12.8592 28.5536 6.46301 22.1641 6.46301 14.2735C6.46301 8.95331 9.41867 4.07814 14.1344 1.61399C21.1151 -2.01914 29.7496 0.697405 33.3894 7.67807C33.655 8.20942 33.4425 8.85369 32.9178 9.11936C32.3997 9.3784 31.7687 9.17914 31.4898 8.66771C28.3946 2.73647 21.0553 0.425086 15.1241 3.51358C9.1862 6.61536 6.8881 13.9348 9.98323 19.8726C13.0784 25.8105 20.4044 28.1086 26.3423 25.0135C30.4404 22.8748 32.9709 18.5841 32.8514 13.9613C32.8381 13.3702 33.3097 12.8787 33.9008 12.872C34.4919 12.8588 34.9768 13.3237 34.9901 13.9148C35.1827 21.8054 28.9393 28.361 21.0487 28.5536C20.9557 28.547 20.8494 28.5536 20.7431 28.5536Z" fill="#1D1D1D"/>
<path d="M20.7299 21.6527C24.8053 21.6527 28.1091 18.3489 28.1091 14.2735C28.1091 10.1981 24.8053 6.89432 20.7299 6.89432C16.6545 6.89432 13.3507 10.1981 13.3507 14.2735C13.3507 18.3489 16.6545 21.6527 20.7299 21.6527Z" fill="#F3FFE3"/>
<path d="M20.7298 22.722C16.0606 22.722 12.2813 18.9361 12.2813 14.2735C12.2813 9.61085 16.0672 5.82495 20.7298 5.82495C25.3925 5.82495 29.1784 9.61085 29.1784 14.2735C29.1717 18.9361 25.3925 22.7154 20.7298 22.722ZM20.7298 7.96365C17.2428 7.96365 14.42 10.7865 14.42 14.2735C14.42 17.7605 17.2428 20.5833 20.7298 20.5833C24.2168 20.5833 27.0397 17.7605 27.0397 14.2735C27.033 10.7865 24.2102 7.96365 20.7298 7.96365Z" fill="#1D1D1D"/>
<path d="M4.74939 34C2.67711 34 0.996704 32.3196 0.996704 30.2473C0.996704 29.0783 1.54134 27.9758 2.47121 27.2651L6.86152 23.9109C7.2866 23.5855 7.89102 23.6253 8.26961 24.0039L10.9994 26.7337C11.378 27.1123 11.4179 27.7167 11.0924 28.1418L7.73826 32.5321C7.0807 33.3889 6.08442 33.9269 5.00178 34C4.91544 34 4.83574 34 4.74939 34ZM7.4128 26.1824L3.76639 28.9654C3.0557 29.5034 2.90958 30.513 3.44757 31.2237C3.98557 31.9344 4.99514 32.0805 5.70583 31.5425C5.82538 31.4495 5.93165 31.3432 6.02464 31.2237L8.81425 27.5773L7.4128 26.1824Z" fill="#1D1D1D"/>
</g>
<defs>
<clipPath id="clip0_18_185">
<rect width="34.0066" height="34" fill="white" transform="translate(0.996704)"/>
</clipPath>
</defs>
</svg>
