<svg width="37" height="39" viewBox="0 0 37 39" fill="none" xmlns="http://www.w3.org/2000/svg">
<path d="M36 18.6923C32.5428 20.4471 29.4457 23.2104 28.398 27.3113C28.055 28.6544 28.3624 29.7773 28.4859 31.0904C25.8499 28.414 23.1453 29.6498 21.3052 32.8124C20.6946 33.8615 20.2301 34.9677 19.9103 36.1414C19.7917 36.5768 19.675 37.0129 19.6181 37.4622C19.5975 37.63 19.7011 38.126 19.6353 37.9701C18.1492 34.4508 16.473 30.7296 13.02 28.7951C11.6005 27.9996 10.2887 27.9222 8.75108 28.3931C8.57277 28.4475 7.60192 28.6934 7.62316 28.8313C8.51782 26.1076 7.23209 23.5009 4.8342 22.0862C3.98752 21.5867 3.09361 21.2014 2.18591 20.833C1.8133 20.6818 0.819152 20.5104 1.09227 20.3836C0.61263 20.5188 2.15089 20.1677 2.31689 20.107C3.31514 19.7435 4.44174 19.3248 5.3227 18.7201C6.98095 17.5826 9.57864 14.4403 6.93437 11.2003C6.93437 11.2003 7.3981 11.4351 7.48799 11.4671C7.93262 11.6246 8.371 11.7465 8.83548 11.83C10.218 12.0794 11.6917 11.9186 12.8971 11.1509C15.7801 9.31398 16.3379 4.12563 16.7228 1C16.5691 1.19436 16.9678 1.83666 17.0398 1.97806C17.564 3.01317 18.1224 4.03303 18.7454 5.01101C20.4414 7.67414 24.9943 12.1275 28.2629 8.80892C28.0461 8.74904 27.8333 10.0614 27.8094 10.2216C27.6139 11.5201 27.749 12.7963 28.4879 13.9052C30.21 16.4903 33.0182 18.6923 36 18.6923Z" fill="#FFE3FB" stroke="#1D1D1D" stroke-width="2" stroke-miterlimit="1.5" stroke-linecap="round" stroke-linejoin="round"/>
</svg>
