<svg width="88" height="37" viewBox="0 0 88 37" fill="none" xmlns="http://www.w3.org/2000/svg">
<path d="M27.9494 23.1514C21.2294 23.1514 14.4594 22.9614 7.87939 22.7814C4.73939 22.6914 3.07939 21.2414 2.22939 20.0414C0.879391 18.1114 0.779391 15.6514 1.26939 14.1814C3.01939 8.89143 6.61939 6.49143 11.9694 7.05143C13.3994 7.20143 14.6794 7.84143 15.5594 8.78143C15.8194 6.92143 16.7394 5.12143 18.1994 3.67143C20.0794 1.80143 22.5294 0.84143 24.9194 1.02143C27.3094 1.20143 29.5894 2.52143 31.1794 4.64143C32.4094 6.29143 33.0494 8.20143 33.0394 10.0714C33.9594 9.25143 35.1394 8.67143 36.4394 8.41143C38.3094 8.04143 40.2094 8.39143 41.6694 9.36143C43.1194 10.3414 44.1594 11.9714 44.5294 13.8414C44.8894 15.7114 44.5294 17.6114 43.5394 19.0614C41.1594 22.5514 36.4294 23.0814 32.1194 23.1414C30.7394 23.1614 29.3494 23.1714 27.9594 23.1714L27.9494 23.1514Z" fill="white"/>
<path d="M7.87939 22.7814C14.4594 22.9614 21.2294 23.1514 27.9494 23.1514L27.9594 23.1714C29.3494 23.1714 30.7394 23.1614 32.1194 23.1414C36.4294 23.0814 41.1594 22.5514 43.5394 19.0614C44.5294 17.6114 44.8894 15.7114 44.5294 13.8414C44.1594 11.9714 43.1194 10.3414 41.6694 9.36143C40.2094 8.39143 38.3094 8.04143 36.4394 8.41143C35.1394 8.67143 33.9594 9.25143 33.0394 10.0714C33.0494 8.20143 32.4094 6.29143 31.1794 4.64143C29.5894 2.52143 27.3094 1.20143 24.9194 1.02143C22.5294 0.84143 20.0794 1.80143 18.1994 3.67143C16.7394 5.12143 15.8194 6.92143 15.5594 8.78143C14.6794 7.84143 13.3994 7.20143 11.9694 7.05143C6.61939 6.49143 3.01939 8.89143 1.26939 14.1814C0.779391 15.6514 0.879391 18.1114 2.22939 20.0414C3.07939 21.2414 4.73939 22.6914 7.87939 22.7814ZM7.87939 22.7814V22.2914" stroke="#1D1D1D" stroke-width="2" stroke-miterlimit="10"/>
<path d="M77.4293 35.9883C73.5819 35.9883 69.7059 35.8769 65.9387 35.7713C64.1409 35.7186 63.1905 34.8684 62.7039 34.1648C61.9309 33.0331 61.8737 31.5907 62.1542 30.7288C63.1562 27.6271 65.2173 26.2198 68.2803 26.5482C69.099 26.6361 69.8319 27.0114 70.3357 27.5626C70.4845 26.472 71.0113 25.4166 71.8472 24.5664C72.9235 23.4699 74.3262 22.907 75.6946 23.0126C77.0629 23.1181 78.3683 23.8921 79.2786 25.1351C79.9828 26.1026 80.3492 27.2225 80.3435 28.3189C80.8702 27.8381 81.5458 27.4981 82.2901 27.3456C83.3607 27.1287 84.4486 27.3339 85.2844 27.9026C86.1146 28.4773 86.71 29.433 86.9219 30.5294C87.128 31.6259 86.9219 32.7399 86.3551 33.5901C84.9925 35.6365 82.2844 35.9472 79.8168 35.9824C79.0267 35.9941 78.2309 36 77.4351 36L77.4293 35.9883Z" fill="white"/>
<path d="M65.9387 35.7713C69.7059 35.8769 73.5819 35.9883 77.4293 35.9883L77.4351 36C78.2309 36 79.0267 35.9941 79.8168 35.9824C82.2844 35.9472 84.9925 35.6365 86.3551 33.5901C86.9219 32.7399 87.128 31.6259 86.9219 30.5294C86.71 29.433 86.1146 28.4773 85.2844 27.9026C84.4486 27.3339 83.3607 27.1287 82.2901 27.3456C81.5458 27.4981 80.8702 27.8381 80.3435 28.3189C80.3492 27.2225 79.9828 26.1026 79.2786 25.1351C78.3683 23.8921 77.0629 23.1181 75.6946 23.0126C74.3262 22.907 72.9235 23.4699 71.8472 24.5664C71.0113 25.4166 70.4845 26.472 70.3357 27.5626C69.8319 27.0114 69.099 26.6361 68.2803 26.5482C65.2173 26.2198 63.1562 27.6271 62.1542 30.7288C61.8737 31.5907 61.9309 33.0331 62.7039 34.1648C63.1905 34.8684 64.1409 35.7186 65.9387 35.7713ZM65.9387 35.7713V35.484" stroke="#1D1D1D" stroke-width="2" stroke-miterlimit="10"/>
</svg>
